<?xml version="1.0" standalone="no"?>
<!DOCTYPE svg PUBLIC "-//W3C//DTD SVG 20010904//EN"
 "http://www.w3.org/TR/2001/REC-SVG-20010904/DTD/svg10.dtd">
<svg version="1.0" xmlns="http://www.w3.org/2000/svg"
 width="538.400000pt" height="184.800000pt" viewBox="0 0 538.400000 184.800000"
 preserveAspectRatio="xMidYMid meet">
<metadata>
Created by potrace 1.13, written by Peter Selinger 2001-2015
</metadata>
<g transform="translate(0.000000,184.800000) scale(0.080000,-0.080000)"
fill="#000000" stroke="none">
<path d="M1260 1790 c-19 -10 -46 -31 -60 -46 -17 -20 -18 -23 -4 -11 22 18
69 23 79 8 10 -18 -29 -103 -52 -112 -25 -9 -77 25 -67 44 5 9 4 9 -5 1 -6 -5
-21 -30 -34 -54 -12 -24 -26 -43 -32 -43 -5 1 -17 24 -25 52 -8 28 -18 51 -22
51 -18 0 -40 -53 -41 -102 -2 -50 -4 -54 -37 -70 -19 -9 -43 -17 -53 -18 -23
0 -33 -26 -18 -44 7 -8 36 -22 66 -31 31 -10 64 -29 79 -46 l26 -29 -25 0
c-14 0 -25 -4 -25 -9 0 -15 31 -21 51 -10 33 17 42 5 19 -24 -16 -19 -30 -27
-54 -27 -46 0 -68 -29 -74 -93 -4 -60 25 -152 59 -183 21 -18 21 -18 40 5 10
13 19 29 19 36 0 7 10 15 23 19 33 9 37 8 37 -13 0 -22 -30 -44 -97 -70 -27
-10 -48 -24 -48 -32 0 -15 53 -31 78 -23 17 5 17 4 3 -23 -8 -16 -22 -35 -30
-42 -9 -8 -16 -19 -16 -25 0 -6 -14 -28 -30 -48 -25 -30 -29 -40 -21 -62 16
-40 47 -51 78 -26 15 11 46 29 69 39 44 20 136 101 181 159 19 25 26 47 27 85
1 49 2 52 30 55 26 3 28 1 22 -20 -4 -13 -14 -48 -22 -78 -28 -105 -56 -175
-101 -258 -25 -46 -42 -86 -40 -89 3 -3 29 14 57 38 42 37 50 48 45 69 -4 19
-3 21 5 10 5 -8 10 -10 10 -4 0 5 6 19 14 29 14 19 15 19 35 1 12 -11 21 -27
21 -37 0 -29 17 -31 66 -10 26 12 55 21 65 21 11 0 29 16 43 38 13 20 30 43
38 49 7 7 27 40 42 75 16 35 42 89 58 121 35 69 32 92 -17 145 l-34 37 -92 -2
-92 -2 7 46 c3 26 13 57 21 70 14 20 14 27 1 51 -19 37 -52 65 -66 57 -8 -5
-10 -22 -6 -49 8 -52 -26 -196 -49 -209 -9 -5 -32 -22 -51 -39 -26 -23 -34
-38 -34 -64 0 -41 -60 -139 -90 -147 -19 -5 -20 -2 -14 31 3 21 16 46 28 57
43 38 40 85 -5 85 -45 0 -34 49 16 73 19 9 35 21 35 26 0 5 18 27 40 49 45 45
49 63 19 91 -25 23 -65 32 -96 20 -19 -7 -23 -5 -23 11 0 11 4 20 10 20 5 0
17 11 25 24 13 19 14 28 4 43 -17 27 21 98 68 125 33 20 35 24 29 60 -5 33 -2
42 24 69 44 46 40 77 -15 121 -31 25 -57 27 -95 8z m-90 -186 c0 -7 -9 -18
-20 -24 -17 -9 -20 -8 -20 9 0 36 11 53 26 40 8 -6 14 -17 14 -25z m-6 -166
c-20 -40 -44 -68 -58 -68 -6 0 -5 5 2 12 7 7 12 19 12 28 0 18 35 60 51 60 5
0 2 -15 -7 -32z m-24 -146 c0 -11 -36 -44 -73 -67 l-29 -19 4 24 c4 30 98 89
98 62z m-10 -130 c0 -43 -3 -50 -25 -60 -40 -18 -45 -15 -45 27 0 33 5 42 33
60 17 11 33 21 35 21 1 0 2 -22 2 -48z m455 -109 c-3 -21 -20 -69 -36 -108
-16 -38 -29 -75 -29 -81 0 -7 -12 -22 -27 -34 -16 -12 -22 -19 -15 -15 20 10
14 -3 -7 -15 -16 -8 -25 -5 -45 15 l-26 26 26 72 c14 40 30 86 36 102 15 45
53 75 95 75 l35 0 -7 -37z m-445 -236 c0 -13 -50 -47 -68 -47 -5 0 5 15 21 34
30 34 47 38 47 13z"/>
<path d="M4076 1775 c-10 -8 -47 -24 -80 -35 -34 -11 -92 -38 -130 -60 -37
-22 -71 -40 -75 -40 -3 0 -13 13 -23 29 -20 36 -52 32 -73 -10 -22 -41 -18
-78 12 -122 31 -45 56 -61 83 -52 20 6 23 15 35 87 9 55 44 90 134 132 116 54
124 46 45 -49 -67 -82 -210 -271 -216 -284 -7 -16 -143 -73 -189 -78 -27 -3
-49 -9 -49 -13 0 -13 101 -60 127 -60 26 0 84 27 95 44 4 6 8 8 8 3 0 -4 14 0
31 8 17 9 33 15 35 13 2 -2 -12 -40 -31 -85 -20 -44 -43 -117 -52 -162 l-16
-81 -38 22 c-21 12 -82 65 -134 118 -97 99 -114 133 -75 145 33 10 26 52 -12
75 -59 36 -128 46 -128 19 0 -4 19 -28 43 -52 33 -35 48 -62 69 -128 15 -46
29 -112 31 -146 4 -41 14 -78 30 -107 14 -25 22 -47 19 -50 -3 -3 -34 -6 -68
-6 -35 0 -74 -5 -88 -11 -42 -20 -48 -83 -12 -125 l23 -28 43 17 c31 12 72 16
163 15 148 -1 260 -17 404 -57 94 -26 120 -29 198 -25 50 3 123 14 164 25 41
11 81 17 88 15 18 -7 28 21 14 38 -26 32 -188 45 -372 31 -76 -6 -110 -4 -165
10 -38 9 -85 18 -104 20 -115 8 -160 18 -166 37 -3 11 -26 48 -50 84 -30 44
-47 80 -51 111 -4 27 -20 66 -40 95 -44 67 -42 71 9 14 75 -86 112 -122 156
-151 33 -22 45 -38 56 -74 13 -46 13 -46 62 -49 40 -2 52 -7 59 -25 12 -28 36
-32 89 -17 35 9 46 20 70 61 24 43 29 67 38 180 9 124 9 133 -9 158 -31 41
-83 46 -144 15 -28 -14 -53 -23 -56 -21 -8 9 20 92 39 113 10 12 35 26 56 32
20 6 61 18 91 26 29 9 62 16 72 16 26 0 24 32 -3 57 -30 27 -53 34 -66 21 -16
-16 -142 -58 -142 -48 0 11 80 104 124 144 45 41 108 83 131 87 45 9 49 84 7
122 -26 23 -74 29 -96 12z m-127 -682 c-1 -38 -4 -81 -8 -98 -7 -30 -7 -30
-19 -7 -7 12 -21 22 -31 22 -10 0 -24 7 -31 15 -10 12 -8 16 15 25 34 13 30
40 -9 59 l-28 13 38 18 c69 32 74 29 73 -47z m-19 -140 c-1 -31 -57 -54 -67
-28 -3 10 0 21 8 26 17 11 59 12 59 2z m-350 -123 c13 -9 13 -11 0 -20 -8 -5
-16 -6 -18 -1 -1 4 -16 6 -32 3 -16 -2 -42 -1 -57 4 -25 7 -22 9 27 14 30 4
57 7 60 8 3 1 12 -3 20 -8z"/>
<path d="M2857 1733 c-12 -11 -8 -23 8 -23 31 0 36 -107 14 -315 -6 -60 -12
-129 -13 -152 -2 -68 -37 -48 -57 32 -7 30 -7 30 -8 3 -1 -34 -11 -59 -20 -53
-7 4 8 107 24 175 8 31 -11 57 -46 65 -23 6 -27 3 -31 -19 -3 -14 -1 -26 3
-26 10 0 7 -35 -12 -160 -6 -47 -16 -89 -21 -95 -13 -14 -40 24 -33 46 3 9 1
28 -4 42 -6 15 -6 29 -1 32 18 11 34 178 18 208 -13 26 -74 23 -89 -4 -6 -11
-17 -71 -25 -132 -8 -62 -16 -122 -19 -135 -9 -36 -25 -15 -25 33 0 59 -18 76
-80 77 -3 1 -19 -2 -37 -5 l-32 -6 19 44 c17 40 17 46 4 60 -22 22 -31 19 -48
-15 -8 -16 -11 -30 -6 -30 11 0 -10 -71 -28 -92 -21 -25 -40 -22 -53 6 -9 20
-7 33 11 70 26 55 78 98 144 120 54 18 106 46 106 57 0 14 -29 30 -56 30 -35
0 -295 -68 -308 -81 -5 -5 3 -11 20 -15 16 -4 35 -8 41 -10 7 -3 31 2 54 10
23 8 45 15 50 15 5 0 -6 -24 -25 -52 -18 -29 -43 -73 -56 -97 -12 -25 -28 -51
-35 -58 -26 -25 -38 -117 -33 -249 5 -139 14 -170 54 -180 18 -5 31 0 52 21
15 15 37 34 50 43 20 13 24 13 42 -3 11 -10 18 -20 16 -23 -10 -9 57 -62 79
-62 3 0 10 12 15 26 6 14 14 23 19 20 11 -7 89 88 106 129 6 17 20 51 29 77
16 45 18 46 42 36 24 -11 25 -14 23 -111 -2 -102 5 -121 41 -114 12 2 15 18
13 82 -2 73 10 191 21 202 8 8 72 -40 83 -63 7 -14 11 -82 10 -169 0 -80 3
-148 6 -152 4 -3 7 -48 7 -100 0 -80 -3 -94 -19 -105 -17 -10 -18 -15 -6 -42
8 -17 16 -39 19 -48 6 -19 47 -33 69 -25 10 4 13 22 12 64 -3 78 -15 332 -23
468 -5 71 -2 148 6 215 7 58 17 164 21 235 5 72 13 144 18 160 13 44 5 71 -28
100 -29 23 -77 33 -92 18z m-249 -388 c-3 -58 -8 -108 -11 -112 -4 -3 -7 -15
-7 -25 0 -12 -4 -16 -11 -12 -8 5 -10 39 -6 113 6 110 12 141 29 141 6 0 8
-39 6 -105z m-195 -97 c6 -37 -12 -58 -50 -58 -20 0 -23 4 -17 28 6 26 37 62
54 62 4 0 10 -15 13 -32z m-107 -44 c-3 -9 -6 -25 -6 -35 0 -11 -4 -17 -10
-14 -11 7 -14 48 -3 58 12 13 25 7 19 -9z m-51 -130 c-21 -16 -25 -27 -20 -43
5 -15 12 -20 25 -16 16 5 17 3 6 -27 -6 -18 -15 -38 -19 -45 -5 -7 0 -10 15
-7 l23 5 -23 -12 c-12 -7 -24 -10 -27 -7 -10 9 -18 156 -11 202 l7 47 26 -38
25 -37 -27 -22z m290 64 c33 -15 33 -48 -2 -116 -22 -41 -29 -49 -34 -34 -6
16 0 162 7 162 2 0 15 -5 29 -12z m-125 -66 l-1 -57 -42 -19 c-23 -10 -50 -26
-59 -34 -11 -9 -18 -11 -18 -4 0 6 6 15 13 19 6 5 27 25 46 45 34 37 34 38 16
59 -19 20 -19 21 5 39 13 10 28 16 32 14 4 -3 8 -31 8 -62z m0 -112 c0 -23 -4
-30 -20 -30 -25 0 -26 18 -2 41 22 23 22 24 22 -11z"/>
<path d="M5155 1643 c-11 -2 -37 -11 -58 -19 -43 -16 -124 -18 -161 -4 -30 11
-56 4 -56 -16 0 -24 48 -88 84 -112 32 -22 34 -25 24 -55 -6 -18 -33 -62 -59
-100 -27 -37 -49 -70 -49 -72 0 -17 42 0 63 25 14 17 29 30 32 30 13 0 -7 -55
-28 -79 -19 -19 -126 -81 -142 -81 -10 0 -5 25 10 55 15 29 14 28 -19 -7 -19
-21 -39 -38 -44 -38 -5 0 -9 -6 -9 -12 0 -7 -2 -17 -3 -23 -6 -20 12 -64 36
-86 l23 -22 53 21 c29 11 60 23 69 26 13 6 15 -2 11 -56 -2 -36 -12 -78 -24
-98 -34 -62 -137 -118 -192 -104 -23 5 -26 3 -26 -19 0 -61 38 -87 125 -87 56
0 57 1 117 60 58 58 60 63 69 128 4 37 8 70 9 74 0 12 43 -16 81 -52 20 -19
62 -57 93 -85 32 -27 63 -61 69 -74 7 -13 21 -29 32 -35 11 -6 22 -14 25 -17
12 -14 90 -48 102 -44 7 2 50 6 95 9 59 3 91 10 115 24 24 15 38 18 51 11 13
-8 17 -6 17 5 0 13 -112 96 -129 96 -3 0 -22 8 -41 18 -19 10 -64 26 -100 36
-36 10 -95 35 -131 57 -36 21 -71 39 -77 39 -7 0 -12 3 -12 8 0 4 -19 16 -43
27 -136 63 -150 97 -69 162 26 21 78 68 116 106 69 67 86 78 86 55 1 -7 10 -2
21 12 l21 24 -28 22 c-44 35 -73 36 -113 3 -20 -16 -41 -29 -47 -29 -6 0 -17
-7 -24 -15 -21 -25 -47 -18 -52 13 -2 15 -2 34 0 44 4 21 66 62 126 82 26 9
58 28 71 42 20 22 22 30 14 52 -24 62 -66 88 -124 75z"/>
<path d="M2689 1325 c-4 -5 -9 -28 -12 -50 l-6 -40 15 34 c14 31 16 79 3 56z"/>
</g>
</svg>
